<?xml version="1.0" encoding="UTF-8"?>
<svg xmlns="http://www.w3.org/2000/svg" xmlns:xlink="http://www.w3.org/1999/xlink" viewBox="0 0 648 71">
  <path d="m.29,35.26C.29,15.79,16.08,0,35.55,0s35.26,15.79,35.26,35.26-15.79,35.26-35.26,35.26S.29,54.73.29,35.26Zm23.21,23.35h12.34c6.94,0,12.43-2.48,12.43-10.85s-4.99-10.85-12.43-10.85h-12.34v.06c.68.65,1.36,1.95,1.36,4.37v12.84c0,2.42-.68,3.72-1.36,4.37v.06Zm18.6-25.37c2.98,0,4.86-.59,6.19-1.53v-.06c-1.25-.04-1.41-.86-1.41-2.39v-11.25c0-4.75-5.3-6.08-11.45-6.08-5.76,0-11.09,1.49-11.09,5.96,0,2.79,2.12,4.59,5.1,4.59,3.22,0,5.57-1.76,5.57-4.82,0-1.48-.69-3.25-3.17-4.86.64-.26,1.41-.36,1.91-.36,1.02,0,2,.54,2,1.76v5.74c-1.51,2.54-4.45,3.01-6.51,3.33-.22.03-.43.07-.62.1-3.41.59-5.8,2-5.8,5.29,0,3.52,2.82,4.74,5.84,4.74,3.19,0,6.09-1.35,7.34-3.17.31,2.48,3.12,3.01,6.1,3.01Zm130.1,19.71c0,4.17.43,6.41,3.85,6.52v.21c-3.63,2.56-8.76,4.17-16.88,4.17s-15.79-1.45-16.63-8.21c-3.4,4.97-11.3,8.64-20.01,8.64-8.23,0-15.92-3.31-15.92-12.93,0-8.97,6.52-12.82,15.81-14.42.53-.09,1.09-.18,1.68-.27,5.61-.88,13.63-2.14,17.76-9.08v-15.65c0-3.31-2.67-4.81-5.45-4.81-1.37,0-3.47.27-5.21.98,6.75,4.38,8.62,9.22,8.62,13.23,0,8.33-6.41,13.14-15.17,13.14-8.12,0-13.89-4.91-13.89-12.5,0-12.18,14.53-16.24,30.23-16.24,16.77,0,31.19,3.63,31.19,16.56v30.66h.02Zm-34.61-7.91c0,5.56,1.39,10.15,4.27,10.15v-25.52c-2.75,3-4.27,9.64-4.27,15.37Zm171.5-8.65c6.09,13.67,27.56,26.49,34.4,26.49.96,0,1.39-.43,1.39-.96,0-1.63-3.8-3.8-8.93-6.73-10.69-6.1-27.18-15.51-27.18-30.23,0-12.93,9.61-19.23,27.35-19.23,9.29,0,20.3,1.71,27.35,3.42l1.18,22.01h-.21c-8.97-14.74-28.63-23.61-35.57-23.61-1.28,0-1.39.64-1.39.96,0,1.2,4,3.4,9.49,6.43,12.09,6.66,31.43,17.32,31.43,30.1,0,10.9-8.76,19.23-28.2,19.23-11.64,0-22.11-1.5-29.91-3.63l-1.39-24.25h.19Zm-65.81,24.22c-1.69-.97-2.49-4.1-2.81-5.7h0s-1.2-6.49-1.2-6.49c-1.2-6.5-3.85-11.16-13.24-12.04-5.65-.53-10.09-.28-15.39.02-.35.02-.71.04-1.06.06v-.44c.56-.04,1.15-.09,1.77-.13h0c10.41-.77,28-2.07,28-15.4,0-14.12-16.69-14.12-26-14.12h-36.83v.16c1.76,1.68,3.53,5.05,3.53,11.31v33.22c0,6.25-1.76,9.63-3.53,11.31v.16h33.22v-.16c-.8-1.68-1.6-5.05-1.6-11.31v-15.01h.57l1.92,15.73c.88,6.98,2.41,12.04,16.21,12.04,8.91,0,14.68-1.93,16.45-3.05v-.16Zm-31.94-39.24c0,6.9-1.04,13.72-3.21,13.72V7.33c2.09,0,3.21,7.14,3.21,14.04Zm93.41-15.01l-.08,29.53h-.16l-17.01-28.57h-.8v43.73c0,6.26,2.17,9.63,4.33,11.31v.16h-36.75v-.16c2.17-1.68,4.33-5.06,4.33-11.31V7.32h-.8l-17.09,28.57h-.16V6.36h64.19Zm269.95,29.53l.08-29.53h-64.19v29.53h.16l17.09-28.57h.8v43.73c0,6.25-2.16,9.63-4.33,11.31v.16h36.75v-.16c-2.16-1.68-4.33-5.05-4.33-11.31V7.32h.8l17.01,28.57h.16Zm69.16,17.06c0,4.17.43,6.41,3.85,6.52v.21c-3.63,2.56-8.76,4.17-16.88,4.17s-15.79-1.45-16.63-8.21c-3.4,4.97-11.3,8.64-20.01,8.64-8.23,0-15.92-3.31-15.92-12.93,0-8.97,6.52-12.82,15.81-14.42.53-.09,1.09-.18,1.68-.27,5.61-.88,13.62-2.14,17.76-9.08v-15.65c0-3.31-2.67-4.81-5.45-4.81-1.37,0-3.47.27-5.21.98,6.75,4.38,8.62,9.22,8.62,13.23,0,8.33-6.41,13.14-15.17,13.14-8.12,0-13.89-4.91-13.89-12.5,0-12.18,14.53-16.24,30.23-16.24,16.77,0,31.19,3.63,31.19,16.56v30.66h.02Zm-34.61-7.91c0,5.56,1.39,10.15,4.27,10.15v-25.52c-2.75,3-4.27,9.64-4.27,15.37Zm-205.14,17.5c17.98,0,32.18-6.42,32.18-28.08,0-21.66-12.92-28.08-32.18-28.08h-31.94v.16c1.76,1.68,3.53,5.05,3.53,11.31v33.22c0,6.25-1.76,9.63-3.53,11.31v.16h31.94Zm-.32-55.54c2.41,0,3.21,13.73,3.21,27.45s-.8,27.44-3.21,27.44V7Zm101.99,45.95c0,4.17.43,6.41,3.85,6.52v.21c-3.63,2.56-8.76,4.17-16.88,4.17s-15.79-1.45-16.63-8.21c-3.4,4.97-11.3,8.64-20.01,8.64-8.23,0-15.92-3.31-15.92-12.93,0-8.97,6.52-12.82,15.81-14.42.53-.09,1.09-.18,1.68-.27,5.61-.88,13.62-2.14,17.76-9.08v-15.65c0-3.31-2.67-4.81-5.45-4.81-1.37,0-3.47.27-5.21.98,6.75,4.38,8.62,9.22,8.62,13.23,0,8.33-6.41,13.14-15.17,13.14-8.12,0-13.89-4.91-13.89-12.5,0-12.18,14.53-16.24,30.23-16.24,16.77,0,31.19,3.63,31.19,16.56v30.66h.02Zm-34.62-7.91c0,5.56,1.39,10.15,4.27,10.15v-25.52c-2.75,3-4.27,9.64-4.27,15.37ZM35.72,58.36v-21.2c.93,0,1.24,5.3,1.24,10.6s-.31,10.6-1.24,10.6Zm-1.54-32.02c0,2.04.51,3.72,1.57,3.72v-9.37c-1.01,1.1-1.57,3.54-1.57,5.64h0Z" fill="currentColor" fill-rule="evenodd"/>
</svg>
