<?xml version="1.0" encoding="UTF-8"?>
<svg id="Calque_1" data-name="Calque 1" xmlns="http://www.w3.org/2000/svg" viewBox="0 0 774 180">
  <defs>
    <style>
      .cls-1 {
        fill: #263d42;
        stroke-width: 0px;
      }
    </style>
  </defs>
  <g>
    <path class="cls-1" d="M235.2,107.95c0,4.17.43,6.41,3.85,6.52v.21c-3.63,2.56-8.76,4.17-16.88,4.17s-15.79-1.45-16.63-8.21c-3.4,4.97-11.3,8.64-20.01,8.64-8.23,0-15.92-3.31-15.92-12.93,0-8.97,6.52-12.82,15.81-14.42,5.57-.95,14.87-1.68,19.44-9.35v-15.65c0-3.31-2.67-4.81-5.45-4.81-1.37,0-3.47.27-5.21.98,6.75,4.38,8.62,9.22,8.62,13.23,0,8.33-6.41,13.14-15.17,13.14-8.12,0-13.89-4.91-13.89-12.5,0-12.18,14.53-16.24,30.23-16.24,16.77,0,31.19,3.63,31.19,16.56v30.66h0ZM200.59,100.04c0,5.56,1.39,10.15,4.27,10.15v-25.52c-2.75,3-4.27,9.64-4.27,15.37h0Z"/>
    <path class="cls-1" d="M372.09,91.39c6.09,13.67,27.56,26.49,34.4,26.49.96,0,1.39-.43,1.39-.96,0-5.02-36.11-15.17-36.11-36.96,0-12.93,9.61-19.23,27.35-19.23,9.29,0,20.3,1.71,27.35,3.42l1.18,22.01h-.21c-8.97-14.74-28.63-23.61-35.57-23.61-1.28,0-1.39.64-1.39.96,0,3.84,40.92,17.95,40.92,36.53,0,10.9-8.76,19.23-28.2,19.23-11.64,0-22.11-1.5-29.91-3.63l-1.39-24.25h.21Z"/>
    <g>
      <path class="cls-1" d="M303.47,109.91c.32,1.6,1.12,4.73,2.81,5.7v.16c-1.77,1.12-7.54,3.05-16.45,3.05-13.8,0-15.33-5.06-16.21-12.04l-1.92-15.73h-.57v15.01c0,6.26.8,9.63,1.6,11.31v.16h-33.22v-.16c1.77-1.68,3.53-5.06,3.53-11.31v-33.22c0-6.26-1.77-9.63-3.53-11.31v-.16h36.83c9.31,0,26,0,26,14.12s-19.74,14.74-29.77,15.53v.44c5.78-.32,10.43-.64,16.45-.08,9.39.88,12.04,5.54,13.24,12.04l1.2,6.5h0ZM271.13,90.09c2.17,0,3.21-6.82,3.21-13.72s-1.12-14.04-3.21-14.04v27.76Z"/>
      <path class="cls-1" d="M367.75,61.36l-.08,29.53h-.16l-17.01-28.57h-.8v43.73c0,6.26,2.17,9.63,4.33,11.31v.16h-36.75v-.16c2.17-1.68,4.33-5.06,4.33-11.31v-43.73h-.8l-17.09,28.57h-.16v-29.53h64.2Z"/>
    </g>
    <path class="cls-1" d="M637.78,61.36l-.08,29.53h-.16l-17.01-28.57h-.8v43.73c0,6.26,2.17,9.63,4.33,11.31v.16h-36.75v-.16c2.17-1.68,4.33-5.06,4.33-11.31v-43.73h-.8l-17.09,28.57h-.16v-29.53h64.2Z"/>
    <path class="cls-1" d="M706.86,107.95c0,4.17.43,6.41,3.85,6.52v.21c-3.63,2.56-8.76,4.17-16.88,4.17s-15.79-1.45-16.63-8.21c-3.4,4.97-11.3,8.64-20.01,8.64-8.23,0-15.92-3.31-15.92-12.93,0-8.97,6.52-12.82,15.81-14.42,5.57-.95,14.87-1.68,19.44-9.35v-15.65c0-3.31-2.67-4.81-5.45-4.81-1.37,0-3.47.27-5.21.98,6.75,4.38,8.62,9.22,8.62,13.23,0,8.33-6.41,13.14-15.17,13.14-8.12,0-13.89-4.91-13.89-12.5,0-12.18,14.53-16.24,30.23-16.24,16.77,0,31.19,3.63,31.19,16.56v30.66h0ZM672.25,100.04c0,5.56,1.39,10.15,4.27,10.15v-25.52c-2.75,3-4.27,9.64-4.27,15.37h0Z"/>
    <path class="cls-1" d="M499.29,89.45c0,21.67-14.2,28.09-32.18,28.09h-31.94v-.16c1.77-1.68,3.53-5.06,3.53-11.31v-33.22c0-6.26-1.77-9.63-3.53-11.31v-.16h31.94c19.26,0,32.18,6.42,32.18,28.09ZM470,89.45c0-13.72-.8-27.45-3.21-27.45v54.89c2.41,0,3.21-13.72,3.21-27.44Z"/>
    <path class="cls-1" d="M568.78,107.95c0,4.17.43,6.41,3.85,6.52v.21c-3.63,2.56-8.76,4.17-16.88,4.17s-15.79-1.45-16.63-8.21c-3.4,4.97-11.3,8.64-20.01,8.64-8.23,0-15.92-3.31-15.92-12.93,0-8.97,6.52-12.82,15.81-14.42,5.57-.95,14.87-1.68,19.44-9.35v-15.65c0-3.31-2.67-4.81-5.45-4.81-1.37,0-3.47.27-5.21.98,6.75,4.38,8.62,9.22,8.62,13.23,0,8.33-6.41,13.14-15.17,13.14-8.12,0-13.89-4.91-13.89-12.5,0-12.18,14.53-16.24,30.23-16.24,16.77,0,31.19,3.63,31.19,16.56v30.66h0ZM534.16,100.04c0,5.56,1.39,10.15,4.27,10.15v-25.52c-2.75,3-4.27,9.64-4.27,15.37h0Z"/>
  </g>
  <g>
    <path class="cls-1" d="M98.72,91.89v21.21c.93,0,1.24-5.3,1.24-10.6s-.31-10.6-1.24-10.6Z"/>
    <path class="cls-1" d="M97.18,81.08c0,2.04.51,3.72,1.57,3.72v-9.37c-1.01,1.1-1.57,3.54-1.57,5.64h0Z"/>
    <path class="cls-1" d="M98.55,54.74c-19.47,0-35.26,15.79-35.26,35.26s15.79,35.26,35.26,35.26,35.26-15.79,35.26-35.26-15.79-35.26-35.26-35.26ZM98.84,113.35h-12.34v-.06c.68-.65,1.36-1.95,1.36-4.37v-12.84c0-2.42-.68-3.72-1.36-4.37v-.06h12.34c7.44,0,12.43,2.48,12.43,10.85s-5.49,10.85-12.43,10.85ZM111.29,86.45c-1.33.94-3.21,1.53-6.19,1.53s-5.79-.53-6.1-3.01c-1.25,1.82-4.15,3.17-7.34,3.17-3.02,0-5.84-1.22-5.84-4.74,0-3.29,2.39-4.7,5.8-5.29,2.04-.35,5.46-.62,7.13-3.43v-5.74c0-1.22-.98-1.76-2-1.76-.5,0-1.27.1-1.91.36,2.48,1.61,3.17,3.38,3.17,4.86,0,3.06-2.35,4.82-5.57,4.82-2.98,0-5.1-1.8-5.1-4.59,0-4.47,5.33-5.96,11.09-5.96,6.15,0,11.45,1.33,11.45,6.08v11.25h0c0,1.53.16,2.35,1.41,2.39v.08Z"/>
  </g>
</svg>