<svg width="642" height="68" viewBox="0 0 642 68" fill="none" xmlns="http://www.w3.org/2000/svg">
<path d="M28.25 23.6133C28.25 25.7533 28.78 27.5133 29.89 27.5133V17.6933C28.83 18.8433 28.25 21.4033 28.25 23.6033V23.6133Z" fill="#263D42"/>
<path d="M29.86 34.9433C30.84 34.9433 31.16 40.5033 31.16 46.0633C31.16 51.6233 30.84 57.1833 29.86 57.1833V34.9433Z" fill="#263D42"/>
<path fill-rule="evenodd" clip-rule="evenodd" d="M59.57 33.8733V0.0133333H59.4C57.8223 0.158405 56.1935 0.128095 53.6854 0.081422C52.0441 0.050881 50.0264 0.0133333 47.4 0.0133333H12.17C9.54364 0.0133333 7.52274 0.00863988 5.87896 0.00482226C3.36689 -0.0010119 1.73556 -0.00480059 0.169998 0.0133333H0V33.8733C0 54.2933 6.81 67.9933 29.78 67.9933C52.75 67.9933 59.56 52.9333 59.56 33.8733H59.57ZM41.57 26.6533C41.57 28.2533 41.73 29.1233 43.05 29.1633V29.2433C41.65 30.2333 39.68 30.8433 36.56 30.8433C33.44 30.8433 30.49 30.2833 30.16 27.6833C28.85 29.5933 25.81 31.0033 22.46 31.0033C19.3 31.0033 16.34 29.7333 16.34 26.0333C16.34 22.5833 18.85 21.1033 22.42 20.4833C22.6145 20.4506 22.8208 20.4184 23.0367 20.3848C25.1957 20.0486 28.2999 19.5652 29.9 16.8833V10.8633C29.9 9.59328 28.87 9.01328 27.8 9.01328C27.27 9.01328 26.47 9.11328 25.8 9.39328C28.4 11.0733 29.12 12.9433 29.12 14.4833C29.12 17.6933 26.65 19.5433 23.28 19.5433C20.16 19.5433 17.94 17.6533 17.94 14.7333C17.94 10.0433 23.53 8.48328 29.57 8.48328C36.02 8.48328 41.57 9.88328 41.57 14.8533V26.6533ZM29.9901 57.4433C37.2801 57.4433 43.0301 54.8433 43.0301 46.0633C43.0301 37.2833 37.7901 34.6833 29.9901 34.6833H17.05V34.7533C17.76 35.4333 18.48 36.7933 18.48 39.3333V52.7934C18.48 55.3233 17.77 56.6933 17.05 57.3733V57.4433H29.9901Z" fill="#263D42"/>
<path d="M166.36 51.9433C166.36 56.1133 166.79 58.3533 170.21 58.4633V58.6733C166.58 61.2333 161.45 62.8433 153.33 62.8433C145.21 62.8433 137.54 61.3933 136.7 54.6333C133.3 59.6033 125.4 63.2733 116.69 63.2733C108.46 63.2733 100.77 59.9633 100.77 50.3433C100.77 41.3733 107.29 37.5233 116.58 35.9233C122.15 34.9733 131.45 34.2433 136.02 26.5733V10.9233C136.02 7.61333 133.35 6.11333 130.57 6.11333C129.2 6.11333 127.1 6.38333 125.36 7.09333C132.11 11.4733 133.98 16.3133 133.98 20.3233C133.98 28.6533 127.57 33.4633 118.81 33.4633C110.69 33.4633 104.92 28.5533 104.92 20.9633C104.92 8.78333 119.45 4.72333 135.15 4.72333C151.92 4.72333 166.34 8.35333 166.34 21.2833V51.9433H166.36ZM131.75 44.0333C131.75 49.5933 133.14 54.1833 136.02 54.1833V28.6633C133.27 31.6633 131.75 38.3033 131.75 44.0333Z" fill="#263D42"/>
<path d="M303.25 35.3833C309.34 49.0533 330.81 61.8733 337.65 61.8733C338.61 61.8733 339.04 61.4433 339.04 60.9133C339.04 55.8933 302.93 45.7433 302.93 23.9533C302.93 11.0233 312.54 4.72333 330.28 4.72333C339.57 4.72333 350.58 6.43333 357.63 8.14333L358.81 30.1533H358.6C349.63 15.4133 329.97 6.54333 323.03 6.54333C321.75 6.54333 321.64 7.18333 321.64 7.50333C321.64 11.3433 362.56 25.4533 362.56 44.0333C362.56 54.9333 353.8 63.2633 334.36 63.2633C322.72 63.2633 312.25 61.7633 304.45 59.6333L303.06 35.3833H303.27H303.25Z" fill="#263D42"/>
<path d="M234.63 53.9033C234.95 55.5033 235.75 58.6333 237.44 59.6033V59.7633C235.67 60.8833 229.9 62.8133 220.99 62.8133C207.19 62.8133 205.66 57.7533 204.78 50.7733L202.86 35.0433H202.29V50.0533C202.29 56.3133 203.09 59.6833 203.89 61.3633V61.5233H170.67V61.3633C172.44 59.6833 174.2 56.3033 174.2 50.0533V16.8333C174.2 10.5733 172.43 7.20333 170.67 5.52333V5.36333H207.5C216.81 5.36333 233.5 5.36333 233.5 19.4833C233.5 33.6033 213.76 34.2233 203.73 35.0133V35.4533C209.51 35.1333 214.16 34.8133 220.18 35.3733C229.57 36.2533 232.22 40.9133 233.42 47.4133L234.62 53.9133L234.63 53.9033ZM202.29 34.0833C204.46 34.0833 205.5 27.2633 205.5 20.3633C205.5 13.4633 204.38 6.32333 202.29 6.32333V34.0833Z" fill="#263D42"/>
<path d="M298.91 5.35333L298.83 34.8833H298.67L281.66 6.31333H280.86V50.0433C280.86 56.3033 283.03 59.6733 285.19 61.3533V61.5133H248.44V61.3533C250.61 59.6733 252.77 56.2933 252.77 50.0433V6.31333H251.97L234.88 34.8833H234.72V5.35333H298.92H298.91Z" fill="#263D42"/>
<path d="M568.94 5.35333L568.86 34.8833H568.7L551.69 6.31333H550.89V50.0433C550.89 56.3033 553.06 59.6733 555.22 61.3533V61.5133H518.47V61.3533C520.64 59.6733 522.8 56.2933 522.8 50.0433V6.31333H522L504.91 34.8833H504.75V5.35333H568.95H568.94Z" fill="#263D42"/>
<path d="M638.02 51.9433C638.02 56.1133 638.45 58.3533 641.87 58.4633V58.6733C638.24 61.2333 633.11 62.8433 624.99 62.8433C616.87 62.8433 609.2 61.3933 608.36 54.6333C604.96 59.6033 597.06 63.2733 588.35 63.2733C580.12 63.2733 572.43 59.9633 572.43 50.3433C572.43 41.3733 578.95 37.5233 588.24 35.9233C593.81 34.9733 603.11 34.2433 607.68 26.5733V10.9233C607.68 7.61333 605.01 6.11333 602.23 6.11333C600.86 6.11333 598.76 6.38333 597.02 7.09333C603.77 11.4733 605.64 16.3133 605.64 20.3233C605.64 28.6533 599.23 33.4633 590.47 33.4633C582.35 33.4633 576.58 28.5533 576.58 20.9633C576.58 8.78333 591.11 4.72333 606.81 4.72333C623.58 4.72333 638 8.35333 638 21.2833V51.9433H638.02ZM603.4 44.0333C603.4 49.5933 604.79 54.1833 607.67 54.1833V28.6633C604.92 31.6633 603.4 38.3033 603.4 44.0333Z" fill="#263D42"/>
<path d="M430.45 33.4433C430.45 55.1133 416.25 61.5333 398.27 61.5333H366.33V61.3733C368.1 59.6933 369.86 56.3133 369.86 50.0633V16.8433C369.86 10.5833 368.09 7.21333 366.33 5.53333V5.37333H398.27C417.53 5.37333 430.45 11.7933 430.45 33.4633V33.4433ZM401.16 33.4433C401.16 19.7233 400.36 5.99333 397.95 5.99333V60.8833C400.36 60.8833 401.16 47.1633 401.16 33.4433Z" fill="#263D42"/>
<path d="M499.93 51.9433C499.93 56.1133 500.36 58.3533 503.78 58.4633V58.6733C500.15 61.2333 495.02 62.8433 486.9 62.8433C478.78 62.8433 471.11 61.3933 470.27 54.6333C466.87 59.6033 458.97 63.2733 450.26 63.2733C442.03 63.2733 434.34 59.9633 434.34 50.3433C434.34 41.3733 440.86 37.5233 450.15 35.9233C455.72 34.9733 465.02 34.2433 469.59 26.5733V10.9233C469.59 7.61333 466.92 6.11333 464.14 6.11333C462.77 6.11333 460.67 6.38333 458.93 7.09333C465.68 11.4733 467.55 16.3133 467.55 20.3233C467.55 28.6533 461.14 33.4633 452.38 33.4633C444.26 33.4633 438.49 28.5533 438.49 20.9633C438.49 8.78333 453.02 4.72333 468.72 4.72333C485.49 4.72333 499.91 8.35333 499.91 21.2833V51.9433H499.93ZM465.32 44.0333C465.32 49.5933 466.71 54.1833 469.59 54.1833V28.6633C466.84 31.6633 465.32 38.3033 465.32 44.0333Z" fill="#263D42"/>
</svg>
